<mxfile host="Electron" modified="2024-05-10T18:37:47.049Z" agent="Mozilla/5.0 (Windows NT 10.0; Win64; x64) AppleWebKit/537.36 (KHTML, like Gecko) draw.io/24.0.4 Chrome/120.0.6099.109 Electron/28.1.0 Safari/537.36" etag="xaSQXejg3jefnd6UamXM" version="24.0.4" type="device">
  <diagram name="Page-1" id="e3a06f82-3646-2815-327d-82caf3d4e204">
    <mxGraphModel dx="1912" dy="1125" grid="1" gridSize="10" guides="1" tooltips="1" connect="1" arrows="1" fold="1" page="1" pageScale="1.5" pageWidth="1169" pageHeight="826" background="none" math="0" shadow="0">
      <root>
        <mxCell id="0" style=";html=1;" />
        <mxCell id="1" style=";html=1;" parent="0" />
        <mxCell id="uxGhuqDMktwWaUcLQht1-185" value="" style="rounded=1;whiteSpace=wrap;html=1;fillColor=#ffe6cc;strokeColor=#d79b00;opacity=70;" vertex="1" parent="1">
          <mxGeometry x="379" y="380" width="631" height="550" as="geometry" />
        </mxCell>
        <mxCell id="uxGhuqDMktwWaUcLQht1-151" value="" style="rounded=1;whiteSpace=wrap;html=1;fillColor=#d5e8d4;strokeColor=#82b366;opacity=70;" vertex="1" parent="1">
          <mxGeometry x="1062.05" y="103.54" width="185.9" height="160" as="geometry" />
        </mxCell>
        <mxCell id="6a7d8f32e03d9370-62" value="Arquitectura De Aplicación" style="text;strokeColor=none;fillColor=none;html=1;fontSize=24;fontStyle=1;verticalAlign=middle;align=center;" parent="1" vertex="1">
          <mxGeometry x="499" y="30" width="861" height="40" as="geometry" />
        </mxCell>
        <mxCell id="uxGhuqDMktwWaUcLQht1-62" value="&lt;font style=&quot;font-size: 16px;&quot;&gt;&lt;b&gt;Usuario Sin Autenticar&lt;/b&gt;&lt;/font&gt;" style="text;html=1;align=center;verticalAlign=middle;resizable=0;points=[];autosize=1;strokeColor=none;fillColor=none;" vertex="1" parent="1">
          <mxGeometry x="70" y="360" width="200" height="30" as="geometry" />
        </mxCell>
        <mxCell id="uxGhuqDMktwWaUcLQht1-71" value="" style="rounded=1;whiteSpace=wrap;html=1;fillColor=#f5f5f5;strokeColor=#666666;fontColor=#333333;" vertex="1" parent="1">
          <mxGeometry x="1388.49" y="980" width="251.51" height="189.29" as="geometry" />
        </mxCell>
        <mxCell id="uxGhuqDMktwWaUcLQht1-55" style="edgeStyle=orthogonalEdgeStyle;rounded=0;orthogonalLoop=1;jettySize=auto;html=1;exitX=-0.003;exitY=0.124;exitDx=0;exitDy=0;exitPerimeter=0;" edge="1" parent="1">
          <mxGeometry relative="1" as="geometry">
            <mxPoint x="1136.9793525179855" y="472.62313131313135" as="sourcePoint" />
            <mxPoint x="963.5243884892086" y="472.6700000000001" as="targetPoint" />
            <Array as="points">
              <mxPoint x="1011.51" y="472.27" />
              <mxPoint x="1011.51" y="472.27" />
            </Array>
          </mxGeometry>
        </mxCell>
        <mxCell id="uxGhuqDMktwWaUcLQht1-79" style="edgeStyle=orthogonalEdgeStyle;rounded=0;orthogonalLoop=1;jettySize=auto;html=1;exitX=0.001;exitY=0.737;exitDx=0;exitDy=0;exitPerimeter=0;" edge="1" parent="1" source="uxGhuqDMktwWaUcLQht1-42" target="cv4h8bZx8-ODt0pYZCOF-10">
          <mxGeometry relative="1" as="geometry" />
        </mxCell>
        <mxCell id="uxGhuqDMktwWaUcLQht1-42" value="" style="rounded=1;whiteSpace=wrap;html=1;fillColor=#d5e8d4;strokeColor=#82b366;opacity=70;" vertex="1" parent="1">
          <mxGeometry x="1136.978417266187" y="451.2121212121212" width="503.021582733813" height="364.04040404040404" as="geometry" />
        </mxCell>
        <mxCell id="cv4h8bZx8-ODt0pYZCOF-8" value="&lt;b&gt;&lt;font style=&quot;font-size: 16px;&quot;&gt;Listar Viajes&lt;/font&gt;&lt;/b&gt;" style="rounded=1;whiteSpace=wrap;html=1;fillColor=#d5e8d4;strokeColor=#82b366;opacity=70;" parent="1" vertex="1">
          <mxGeometry x="776.1151079136691" y="395.55555555555554" width="185.8992805755396" height="107.07070707070707" as="geometry" />
        </mxCell>
        <mxCell id="uxGhuqDMktwWaUcLQht1-56" style="edgeStyle=orthogonalEdgeStyle;rounded=0;orthogonalLoop=1;jettySize=auto;html=1;entryX=0;entryY=0.277;entryDx=0;entryDy=0;entryPerimeter=0;" edge="1" parent="1">
          <mxGeometry relative="1" as="geometry">
            <mxPoint x="1136.978417266187" y="581.3613131313132" as="targetPoint" />
            <mxPoint x="962.0143884892086" y="581.3613131313132" as="sourcePoint" />
            <Array as="points">
              <mxPoint x="1136.978417266187" y="581.1685858585859" />
            </Array>
          </mxGeometry>
        </mxCell>
        <mxCell id="cv4h8bZx8-ODt0pYZCOF-9" value="&lt;span style=&quot;font-size: 16px;&quot;&gt;&lt;b&gt;Crear Viaje&lt;/b&gt;&lt;/span&gt;" style="rounded=1;whiteSpace=wrap;html=1;fillColor=#d5e8d4;strokeColor=#82b366;opacity=70;" parent="1" vertex="1">
          <mxGeometry x="776.1151079136691" y="524.040404040404" width="185.8992805755396" height="115.63636363636364" as="geometry" />
        </mxCell>
        <mxCell id="cv4h8bZx8-ODt0pYZCOF-10" value="&lt;b&gt;&lt;font style=&quot;font-size: 16px;&quot;&gt;Ver Gastos Por Viaje&lt;/font&gt;&lt;/b&gt;" style="rounded=1;whiteSpace=wrap;html=1;fillColor=#d5e8d4;strokeColor=#82b366;opacity=70;" parent="1" vertex="1">
          <mxGeometry x="776.1151079136691" y="665.3535353535353" width="185.8992805755396" height="107.07070707070707" as="geometry" />
        </mxCell>
        <mxCell id="uxGhuqDMktwWaUcLQht1-25" style="edgeStyle=orthogonalEdgeStyle;rounded=0;orthogonalLoop=1;jettySize=auto;html=1;" edge="1" parent="1" source="cv4h8bZx8-ODt0pYZCOF-11" target="cv4h8bZx8-ODt0pYZCOF-38">
          <mxGeometry relative="1" as="geometry">
            <Array as="points">
              <mxPoint x="869.0647482014389" y="943.7373737373738" />
              <mxPoint x="486.33093525179856" y="943.7373737373738" />
            </Array>
          </mxGeometry>
        </mxCell>
        <mxCell id="uxGhuqDMktwWaUcLQht1-26" style="edgeStyle=orthogonalEdgeStyle;rounded=0;orthogonalLoop=1;jettySize=auto;html=1;entryX=0.5;entryY=0;entryDx=0;entryDy=0;" edge="1" parent="1" source="cv4h8bZx8-ODt0pYZCOF-11" target="cv4h8bZx8-ODt0pYZCOF-35">
          <mxGeometry relative="1" as="geometry">
            <Array as="points">
              <mxPoint x="869.0647482014389" y="943.7373737373738" />
              <mxPoint x="705.0359712230216" y="943.7373737373738" />
            </Array>
          </mxGeometry>
        </mxCell>
        <mxCell id="uxGhuqDMktwWaUcLQht1-28" style="edgeStyle=orthogonalEdgeStyle;rounded=0;orthogonalLoop=1;jettySize=auto;html=1;" edge="1" parent="1" source="cv4h8bZx8-ODt0pYZCOF-11">
          <mxGeometry relative="1" as="geometry">
            <mxPoint x="1120.5755395683454" y="997.2727272727273" as="targetPoint" />
            <Array as="points">
              <mxPoint x="869.0647482014389" y="943.7373737373738" />
              <mxPoint x="1120.5755395683454" y="943.7373737373738" />
            </Array>
          </mxGeometry>
        </mxCell>
        <mxCell id="cv4h8bZx8-ODt0pYZCOF-11" value="&lt;b&gt;&lt;font style=&quot;font-size: 16px;&quot;&gt;Configuración&lt;/font&gt;&lt;/b&gt;" style="rounded=1;whiteSpace=wrap;html=1;fillColor=#d5e8d4;strokeColor=#82b366;opacity=70;" parent="1" vertex="1">
          <mxGeometry x="776.1151079136691" y="793.8383838383838" width="185.8992805755396" height="107.07070707070707" as="geometry" />
        </mxCell>
        <mxCell id="uxGhuqDMktwWaUcLQht1-63" style="edgeStyle=orthogonalEdgeStyle;rounded=0;orthogonalLoop=1;jettySize=auto;html=1;" edge="1" parent="1" source="cv4h8bZx8-ODt0pYZCOF-16">
          <mxGeometry relative="1" as="geometry">
            <mxPoint x="327.7697841726619" y="290.6060606060606" as="targetPoint" />
          </mxGeometry>
        </mxCell>
        <mxCell id="cv4h8bZx8-ODt0pYZCOF-16" value="&lt;b&gt;&lt;font style=&quot;font-size: 16px;&quot;&gt;Cerrar Sesión&lt;/font&gt;&lt;/b&gt;" style="rounded=1;whiteSpace=wrap;html=1;fillColor=#f8cecc;strokeColor=#b85450;opacity=70;" parent="1" vertex="1">
          <mxGeometry x="458.9928057553957" y="237.07070707070707" width="185.8992805755396" height="107.07070707070707" as="geometry" />
        </mxCell>
        <mxCell id="cv4h8bZx8-ODt0pYZCOF-35" value="&lt;b&gt;&lt;font style=&quot;font-size: 16px;&quot;&gt;Ver Datos Usuario&lt;/font&gt;&lt;/b&gt;" style="rounded=1;whiteSpace=wrap;html=1;fillColor=#d5e8d4;strokeColor=#82b366;opacity=70;" parent="1" vertex="1">
          <mxGeometry x="612.0863309352519" y="997.2727272727273" width="185.8992805755396" height="107.07070707070707" as="geometry" />
        </mxCell>
        <mxCell id="cv4h8bZx8-ODt0pYZCOF-36" value="&lt;b&gt;&lt;font style=&quot;font-size: 16px;&quot;&gt;Modificar Datos Usuario&lt;/font&gt;&lt;/b&gt;" style="rounded=1;whiteSpace=wrap;html=1;fillColor=#d5e8d4;strokeColor=#82b366;opacity=70;" parent="1" vertex="1">
          <mxGeometry x="819.8561151079138" y="997.2727272727273" width="185.8992805755396" height="107.07070707070707" as="geometry" />
        </mxCell>
        <mxCell id="cv4h8bZx8-ODt0pYZCOF-37" value="&lt;b&gt;&lt;font style=&quot;font-size: 16px;&quot;&gt;Eliminar Cuenta&lt;/font&gt;&lt;/b&gt;" style="rounded=1;whiteSpace=wrap;html=1;fillColor=#f8cecc;strokeColor=#b85450;opacity=70;" parent="1" vertex="1">
          <mxGeometry x="1027.6258992805756" y="997.2727272727273" width="185.8992805755396" height="107.07070707070707" as="geometry" />
        </mxCell>
        <mxCell id="cv4h8bZx8-ODt0pYZCOF-38" value="&lt;b&gt;&lt;font style=&quot;font-size: 16px;&quot;&gt;Salir App&lt;/font&gt;&lt;/b&gt;" style="rounded=1;whiteSpace=wrap;html=1;fillColor=#f8cecc;strokeColor=#b85450;opacity=70;" parent="1" vertex="1">
          <mxGeometry x="393.3812949640288" y="997.2727272727273" width="185.8992805755396" height="107.07070707070707" as="geometry" />
        </mxCell>
        <mxCell id="cv4h8bZx8-ODt0pYZCOF-45" value="&lt;b&gt;&lt;font style=&quot;font-size: 16px;&quot;&gt;Modifica Viaje&lt;/font&gt;&lt;/b&gt;" style="rounded=1;whiteSpace=wrap;html=1;fillColor=#d5e8d4;strokeColor=#82b366;opacity=70;" parent="1" vertex="1">
          <mxGeometry x="776.1151079136691" y="130" width="185.8992805755396" height="107.07070707070707" as="geometry" />
        </mxCell>
        <mxCell id="cv4h8bZx8-ODt0pYZCOF-49" value="&lt;span style=&quot;font-size: 16px;&quot;&gt;&lt;b&gt;API Places Google&lt;/b&gt;&lt;/span&gt;" style="rounded=1;whiteSpace=wrap;html=1;fillColor=#e1d5e7;strokeColor=#9673a6;" parent="1" vertex="1">
          <mxGeometry x="1361.1487050359713" y="103.53999999999999" width="185.8992805755396" height="107.07070707070707" as="geometry" />
        </mxCell>
        <mxCell id="uxGhuqDMktwWaUcLQht1-18" style="edgeStyle=orthogonalEdgeStyle;rounded=0;orthogonalLoop=1;jettySize=auto;html=1;" edge="1" parent="1" source="uxGhuqDMktwWaUcLQht1-1">
          <mxGeometry relative="1" as="geometry">
            <mxPoint x="212.9496402877698" y="772.4242424242422" as="targetPoint" />
          </mxGeometry>
        </mxCell>
        <mxCell id="uxGhuqDMktwWaUcLQht1-1" value="&lt;b&gt;&lt;font style=&quot;font-size: 16px;&quot;&gt;Login&lt;/font&gt;&lt;/b&gt;" style="rounded=1;whiteSpace=wrap;html=1;fillColor=#dae8fc;strokeColor=#6c8ebf;" vertex="1" parent="1">
          <mxGeometry x="120" y="498.32323232323233" width="185.8992805755396" height="107.07070707070707" as="geometry" />
        </mxCell>
        <mxCell id="uxGhuqDMktwWaUcLQht1-8" style="edgeStyle=orthogonalEdgeStyle;rounded=0;orthogonalLoop=1;jettySize=auto;html=1;exitX=0.5;exitY=0;exitDx=0;exitDy=0;entryX=0.5;entryY=1;entryDx=0;entryDy=0;" edge="1" parent="1" source="cv4h8bZx8-ODt0pYZCOF-5" target="cv4h8bZx8-ODt0pYZCOF-16">
          <mxGeometry relative="1" as="geometry" />
        </mxCell>
        <mxCell id="cv4h8bZx8-ODt0pYZCOF-5" value="&lt;b&gt;&lt;font style=&quot;font-size: 16px;&quot;&gt;Acceso a inicio App&lt;/font&gt;&lt;/b&gt;" style="rounded=1;whiteSpace=wrap;html=1;fillColor=#d5e8d4;strokeColor=#82b366;opacity=70;" parent="1" vertex="1">
          <mxGeometry x="458.9928057553957" y="793.8383838383838" width="185.8992805755396" height="107.07070707070707" as="geometry" />
        </mxCell>
        <mxCell id="uxGhuqDMktwWaUcLQht1-10" style="edgeStyle=orthogonalEdgeStyle;rounded=0;orthogonalLoop=1;jettySize=auto;html=1;" edge="1" parent="1" source="cv4h8bZx8-ODt0pYZCOF-1" target="cv4h8bZx8-ODt0pYZCOF-5">
          <mxGeometry relative="1" as="geometry">
            <Array as="points">
              <mxPoint x="360.57553956834533" y="847.3737373737374" />
              <mxPoint x="360.57553956834533" y="847.3737373737374" />
            </Array>
          </mxGeometry>
        </mxCell>
        <mxCell id="uxGhuqDMktwWaUcLQht1-13" value="" style="group" vertex="1" connectable="0" parent="1">
          <mxGeometry x="120" y="237.07070707070707" width="198.58417266187055" height="128.4848484848485" as="geometry" />
        </mxCell>
        <mxCell id="uxGhuqDMktwWaUcLQht1-16" value="" style="group" vertex="1" connectable="0" parent="uxGhuqDMktwWaUcLQht1-13">
          <mxGeometry width="198.58417266187053" height="128.4848484848485" as="geometry" />
        </mxCell>
        <mxCell id="uxGhuqDMktwWaUcLQht1-11" value="" style="image;sketch=0;aspect=fixed;html=1;points=[];align=center;fontSize=12;image=img/lib/mscae/App_Service_Mobile_App.svg;" vertex="1" parent="uxGhuqDMktwWaUcLQht1-16">
          <mxGeometry x="109.35251798561151" width="87.36969696969696" height="128.4848484848485" as="geometry" />
        </mxCell>
        <mxCell id="uxGhuqDMktwWaUcLQht1-12" value="" style="shape=actor;whiteSpace=wrap;html=1;fillColor=#e1d5e7;strokeColor=#9673a6;" vertex="1" parent="uxGhuqDMktwWaUcLQht1-16">
          <mxGeometry y="16.060606060606062" width="76.54676258992806" height="96.36363636363636" as="geometry" />
        </mxCell>
        <mxCell id="cv4h8bZx8-ODt0pYZCOF-1" value="" style="image;sketch=0;aspect=fixed;html=1;points=[];align=center;fontSize=12;image=img/lib/mscae/App_Service_Mobile_App.svg;" parent="1" vertex="1">
          <mxGeometry x="229.3525179856115" y="772.4242424242424" width="87.36969696969696" height="128.4848484848485" as="geometry" />
        </mxCell>
        <mxCell id="cv4h8bZx8-ODt0pYZCOF-4" value="" style="shape=actor;whiteSpace=wrap;html=1;fillColor=#e1d5e7;strokeColor=#9673a6;" parent="1" vertex="1">
          <mxGeometry x="120" y="788.4848484848485" width="76.54676258992806" height="96.36363636363636" as="geometry" />
        </mxCell>
        <mxCell id="uxGhuqDMktwWaUcLQht1-17" style="edgeStyle=orthogonalEdgeStyle;rounded=0;orthogonalLoop=1;jettySize=auto;html=1;entryX=0.199;entryY=0.014;entryDx=0;entryDy=0;entryPerimeter=0;" edge="1" parent="1" target="uxGhuqDMktwWaUcLQht1-1">
          <mxGeometry relative="1" as="geometry">
            <mxPoint x="157" y="382" as="sourcePoint" />
            <Array as="points">
              <mxPoint x="157" y="382" />
            </Array>
          </mxGeometry>
        </mxCell>
        <mxCell id="uxGhuqDMktwWaUcLQht1-27" style="edgeStyle=orthogonalEdgeStyle;rounded=0;orthogonalLoop=1;jettySize=auto;html=1;entryX=0.459;entryY=0;entryDx=0;entryDy=0;entryPerimeter=0;" edge="1" parent="1" source="cv4h8bZx8-ODt0pYZCOF-11" target="cv4h8bZx8-ODt0pYZCOF-36">
          <mxGeometry relative="1" as="geometry">
            <Array as="points">
              <mxPoint x="869.0647482014389" y="943.7373737373738" />
              <mxPoint x="905.1510791366907" y="943.7373737373738" />
            </Array>
          </mxGeometry>
        </mxCell>
        <mxCell id="uxGhuqDMktwWaUcLQht1-46" style="edgeStyle=orthogonalEdgeStyle;rounded=0;orthogonalLoop=1;jettySize=auto;html=1;" edge="1" parent="1" source="cv4h8bZx8-ODt0pYZCOF-19">
          <mxGeometry relative="1" as="geometry">
            <mxPoint x="1344.748201438849" y="633.2323232323232" as="targetPoint" />
          </mxGeometry>
        </mxCell>
        <mxCell id="cv4h8bZx8-ODt0pYZCOF-19" value="" style="sketch=0;outlineConnect=0;fontColor=#232F3E;gradientColor=none;fillColor=#000000;strokeColor=none;dashed=0;verticalLabelPosition=bottom;verticalAlign=top;align=center;html=1;fontSize=12;fontStyle=0;aspect=fixed;pointerEvents=1;shape=mxgraph.aws4.rds_mysql_instance;" parent="1" vertex="1">
          <mxGeometry x="1465.0359712230218" y="570.060606060606" width="126.34343434343434" height="126.34343434343434" as="geometry" />
        </mxCell>
        <mxCell id="uxGhuqDMktwWaUcLQht1-50" style="edgeStyle=orthogonalEdgeStyle;rounded=0;orthogonalLoop=1;jettySize=auto;html=1;" edge="1" parent="1" source="uxGhuqDMktwWaUcLQht1-40" target="cv4h8bZx8-ODt0pYZCOF-19">
          <mxGeometry relative="1" as="geometry">
            <Array as="points">
              <mxPoint x="1366.6187050359713" y="633.2323232323232" />
              <mxPoint x="1366.6187050359713" y="633.2323232323232" />
            </Array>
          </mxGeometry>
        </mxCell>
        <mxCell id="uxGhuqDMktwWaUcLQht1-52" value="" style="group" vertex="1" connectable="0" parent="1">
          <mxGeometry x="1167.4987050359712" y="520.8080808080808" width="177.24949640287787" height="224.84848484848484" as="geometry" />
        </mxCell>
        <mxCell id="uxGhuqDMktwWaUcLQht1-37" value="" style="sketch=0;outlineConnect=0;fontColor=#232F3E;gradientColor=none;fillColor=#232F3D;strokeColor=none;dashed=0;verticalLabelPosition=bottom;verticalAlign=top;align=center;html=1;fontSize=12;fontStyle=0;aspect=fixed;pointerEvents=1;shape=mxgraph.aws4.traditional_server;" vertex="1" parent="uxGhuqDMktwWaUcLQht1-52">
          <mxGeometry width="115.30444444444444" height="199.86903179830895" as="geometry" />
        </mxCell>
        <mxCell id="cv4h8bZx8-ODt0pYZCOF-17" value="" style="sketch=0;pointerEvents=1;shadow=0;dashed=0;html=1;strokeColor=none;fillColor=#005F4B;labelPosition=center;verticalLabelPosition=bottom;verticalAlign=top;align=center;outlineConnect=0;shape=mxgraph.veeam2.linux_server;" parent="uxGhuqDMktwWaUcLQht1-52" vertex="1">
          <mxGeometry x="18.06537147816881" y="107.92727272727268" width="81.65139651149596" height="116.92121212121211" as="geometry" />
        </mxCell>
        <mxCell id="uxGhuqDMktwWaUcLQht1-40" value="" style="dashed=0;outlineConnect=0;html=1;align=center;labelPosition=center;verticalLabelPosition=bottom;verticalAlign=top;shape=mxgraph.weblogos.java" vertex="1" parent="uxGhuqDMktwWaUcLQht1-52">
          <mxGeometry x="117.76172661870511" y="88.86868686868686" width="59.48776978417266" height="112.42424242424242" as="geometry" />
        </mxCell>
        <mxCell id="uxGhuqDMktwWaUcLQht1-54" value="&lt;b&gt;&lt;font style=&quot;font-size: 14px;&quot;&gt;Azure - Máquina Virtual&lt;/font&gt;&lt;/b&gt;" style="text;html=1;align=center;verticalAlign=middle;whiteSpace=wrap;rounded=0;" vertex="1" parent="1">
          <mxGeometry x="1292.8057553956835" y="472.62626262626264" width="191.36690647482015" height="32.121212121212125" as="geometry" />
        </mxCell>
        <mxCell id="uxGhuqDMktwWaUcLQht1-59" style="edgeStyle=orthogonalEdgeStyle;rounded=0;orthogonalLoop=1;jettySize=auto;html=1;" edge="1" parent="1" source="cv4h8bZx8-ODt0pYZCOF-37">
          <mxGeometry relative="1" as="geometry">
            <mxPoint x="1288.978417266187" y="815.2525252525253" as="targetPoint" />
            <Array as="points">
              <mxPoint x="1120.5755395683454" y="1125.7575757575758" />
              <mxPoint x="1288.978417266187" y="1125.7575757575758" />
            </Array>
          </mxGeometry>
        </mxCell>
        <mxCell id="uxGhuqDMktwWaUcLQht1-60" style="edgeStyle=orthogonalEdgeStyle;rounded=0;orthogonalLoop=1;jettySize=auto;html=1;" edge="1" parent="1" source="cv4h8bZx8-ODt0pYZCOF-36">
          <mxGeometry relative="1" as="geometry">
            <mxPoint x="1322.8776978417268" y="815.2525252525253" as="targetPoint" />
            <Array as="points">
              <mxPoint x="912.8057553956835" y="1157.878787878788" />
              <mxPoint x="1322.8776978417268" y="1157.878787878788" />
              <mxPoint x="1322.8776978417268" y="815.2525252525253" />
            </Array>
          </mxGeometry>
        </mxCell>
        <mxCell id="uxGhuqDMktwWaUcLQht1-61" style="edgeStyle=orthogonalEdgeStyle;rounded=0;orthogonalLoop=1;jettySize=auto;html=1;exitX=0.434;exitY=1.002;exitDx=0;exitDy=0;exitPerimeter=0;" edge="1" parent="1" source="uxGhuqDMktwWaUcLQht1-42" target="cv4h8bZx8-ODt0pYZCOF-35">
          <mxGeometry relative="1" as="geometry">
            <Array as="points">
              <mxPoint x="1355.6834532374103" y="816.3232323232323" />
              <mxPoint x="1355.6834532374103" y="816.3232323232323" />
              <mxPoint x="1355.6834532374103" y="1190" />
              <mxPoint x="705.0359712230216" y="1190" />
            </Array>
          </mxGeometry>
        </mxCell>
        <mxCell id="uxGhuqDMktwWaUcLQht1-66" value="&lt;b&gt;&lt;font style=&quot;font-size: 15px;&quot;&gt;Envía&lt;/font&gt;&lt;/b&gt;" style="text;html=1;align=center;verticalAlign=middle;whiteSpace=wrap;rounded=0;" vertex="1" parent="1">
          <mxGeometry x="1481.4388489208634" y="1082.2222222222222" width="65.61151079136691" height="32.121212121212125" as="geometry" />
        </mxCell>
        <mxCell id="uxGhuqDMktwWaUcLQht1-73" value="" style="endArrow=classic;html=1;rounded=0;entryX=0.913;entryY=0.455;entryDx=0;entryDy=0;entryPerimeter=0;" edge="1" parent="1">
          <mxGeometry width="50" height="50" relative="1" as="geometry">
            <mxPoint x="1404.9020863309354" y="1113.7834343434345" as="sourcePoint" />
            <mxPoint x="1623.5961870503597" y="1113.8369696969698" as="targetPoint" />
          </mxGeometry>
        </mxCell>
        <mxCell id="cv4h8bZx8-ODt0pYZCOF-6" value="&lt;font style=&quot;font-size: 16px;&quot;&gt;&lt;b&gt;Usuario Autenticado&lt;/b&gt;&lt;/font&gt;" style="text;html=1;align=center;verticalAlign=middle;resizable=0;points=[];autosize=1;strokeColor=none;fillColor=none;" parent="1" vertex="1">
          <mxGeometry x="90" y="900" width="180" height="30" as="geometry" />
        </mxCell>
        <mxCell id="uxGhuqDMktwWaUcLQht1-75" value="&lt;font style=&quot;font-size: 14px;&quot;&gt;Viajes&lt;/font&gt;" style="text;html=1;align=center;verticalAlign=middle;whiteSpace=wrap;rounded=0;" vertex="1" parent="1">
          <mxGeometry x="1020" y="474.74999999999994" width="60" height="30" as="geometry" />
        </mxCell>
        <mxCell id="uxGhuqDMktwWaUcLQht1-76" value="&lt;font style=&quot;font-size: 14px;&quot;&gt;Viaje&lt;/font&gt;" style="text;html=1;align=center;verticalAlign=middle;whiteSpace=wrap;rounded=0;" vertex="1" parent="1">
          <mxGeometry x="1020" y="550" width="60" height="30" as="geometry" />
        </mxCell>
        <mxCell id="uxGhuqDMktwWaUcLQht1-148" value="&lt;font style=&quot;font-size: 14px;&quot;&gt;Gastos&lt;/font&gt;" style="text;html=1;align=center;verticalAlign=middle;whiteSpace=wrap;rounded=0;" vertex="1" parent="1">
          <mxGeometry x="1020" y="690" width="60" height="30" as="geometry" />
        </mxCell>
        <mxCell id="uxGhuqDMktwWaUcLQht1-160" style="edgeStyle=orthogonalEdgeStyle;rounded=0;orthogonalLoop=1;jettySize=auto;html=1;exitX=1;exitY=0.25;exitDx=0;exitDy=0;" edge="1" parent="1" source="uxGhuqDMktwWaUcLQht1-149">
          <mxGeometry relative="1" as="geometry">
            <mxPoint x="1360" y="134.33333333333331" as="targetPoint" />
          </mxGeometry>
        </mxCell>
        <mxCell id="uxGhuqDMktwWaUcLQht1-149" value="&lt;b&gt;&lt;font style=&quot;font-size: 16px;&quot;&gt;Crea Lugar&lt;/font&gt;&lt;/b&gt;&lt;span style=&quot;color: rgba(0, 0, 0, 0); font-family: monospace; font-size: 0px; text-align: start; text-wrap: nowrap;&quot;&gt;%3CmxGraphModel%3E%3Croot%3E%3CmxCell%20id%3D%220%22%2F%3E%3CmxCell%20id%3D%221%22%20parent%3D%220%22%2F%3E%3CmxCell%20id%3D%222%22%20value%3D%22%26lt%3Bb%26gt%3B%26lt%3Bfont%20style%3D%26quot%3Bfont-size%3A%2016px%3B%26quot%3B%26gt%3BModifica%20Viaje%26lt%3B%2Ffont%26gt%3B%26lt%3B%2Fb%26gt%3B%22%20style%3D%22rounded%3D1%3BwhiteSpace%3Dwrap%3Bhtml%3D1%3B%22%20vertex%3D%221%22%20parent%3D%221%22%3E%3CmxGeometry%20x%3D%221120%22%20y%3D%22100%22%20width%3D%22170%22%20height%3D%22100%22%20as%3D%22geometry%22%2F%3E%3C%2FmxCell%3E%3C%2Froot%3E%3C%2FmxGraphModel%&lt;/span&gt;" style="rounded=1;whiteSpace=wrap;html=1;fillColor=#f5f5f5;fontColor=#333333;strokeColor=#666666;" vertex="1" parent="1">
          <mxGeometry x="1110" y="120" width="90" height="57.07" as="geometry" />
        </mxCell>
        <mxCell id="uxGhuqDMktwWaUcLQht1-166" style="edgeStyle=orthogonalEdgeStyle;rounded=0;orthogonalLoop=1;jettySize=auto;html=1;exitX=1;exitY=0.5;exitDx=0;exitDy=0;" edge="1" parent="1" source="uxGhuqDMktwWaUcLQht1-150">
          <mxGeometry relative="1" as="geometry">
            <mxPoint x="1300" y="450" as="targetPoint" />
          </mxGeometry>
        </mxCell>
        <mxCell id="uxGhuqDMktwWaUcLQht1-150" value="&lt;b&gt;&lt;font style=&quot;font-size: 16px;&quot;&gt;Elimina Lugar&lt;/font&gt;&lt;/b&gt;&lt;span style=&quot;color: rgba(0, 0, 0, 0); font-family: monospace; font-size: 0px; text-align: start; text-wrap: nowrap;&quot;&gt;%3CmxGraphModel%3E%3Croot%3E%3CmxCell%20id%3D%220%22%2F%3E%3CmxCell%20id%3D%221%22%20parent%3D%220%22%2F%3E%3CmxCell%20id%3D%222%22%20value%3D%22%26lt%3Bb%26gt%3B%26lt%3Bfont%20style%3D%26quot%3Bfont-size%3A%2016px%3B%26quot%3B%26gt%3BModifica%20Viaje%26lt%3B%2Ffont%26gt%3B%26lt%3B%2Fb%26gt%3B%22%20style%3D%22rounded%3D1%3BwhiteSpace%3Dwrap%3Bhtml%3D1%3B%22%20vertex%3D%221%22%20parent%3D%221%22%3E%3CmxGeometry%20x%3D%221120%22%20y%3D%22100%22%20width%3D%22170%22%20height%3D%22100%22%20as%3D%22geometry%22%2F%3E%3C%2FmxCell%3E%3C%2Froot%3E%3C%2FmxGraphModel%&lt;/span&gt;" style="rounded=1;whiteSpace=wrap;html=1;fillColor=#f5f5f5;fontColor=#333333;strokeColor=#666666;" vertex="1" parent="1">
          <mxGeometry x="1110" y="187.07" width="90" height="57.07" as="geometry" />
        </mxCell>
        <mxCell id="uxGhuqDMktwWaUcLQht1-152" value="" style="rounded=1;whiteSpace=wrap;html=1;fillColor=#d5e8d4;strokeColor=#82b366;opacity=70;" vertex="1" parent="1">
          <mxGeometry x="1062.05" y="280" width="185.9" height="160" as="geometry" />
        </mxCell>
        <mxCell id="uxGhuqDMktwWaUcLQht1-169" style="edgeStyle=orthogonalEdgeStyle;rounded=0;orthogonalLoop=1;jettySize=auto;html=1;exitX=1;exitY=0.5;exitDx=0;exitDy=0;" edge="1" parent="1" source="uxGhuqDMktwWaUcLQht1-153">
          <mxGeometry relative="1" as="geometry">
            <mxPoint x="1260" y="450" as="targetPoint" />
          </mxGeometry>
        </mxCell>
        <mxCell id="uxGhuqDMktwWaUcLQht1-153" value="&lt;b&gt;&lt;font style=&quot;font-size: 16px;&quot;&gt;Crea Gasto&lt;/font&gt;&lt;/b&gt;&lt;span style=&quot;color: rgba(0, 0, 0, 0); font-family: monospace; font-size: 0px; text-align: start; text-wrap: nowrap; background-color: initial;&quot;&gt;%3CmxGraphModel%3E%3Croot%3E%3CmxCell%20id%3D%220%22%2F%3E%3CmxCell%20id%3D%221%22%20parent%3D%220%22%2F%3E%3CmxCell%20id%3D%222%22%20value%3D%22%26lt%3Bb%26gt%3B%26lt%3Bfont%20style%3D%26quot%3Bfont-size%3A%2016px%3B%26quot%3B%26gt%3BModifica%20Viaje%26lt%3B%2Ffont%26gt%3B%26lt%3B%2Fb%26gt%3B%22%20style%3D%22rounded%3D1%3BwhiteSpace%3Dwrap%3Bhtml%3D1%3B%22%20vertex%3D%221%22%20parent%3D%221%22%3E%3CmxGeometry%20x%3D%221120%22%20y%3D%22100%22%20width%3D%22170%22%20height%3D%22100%22%20as%3D%22geometry%22%2F%3E%3C%2FmxCell%3E%3C%2Froot%3E%3C%2FmxGraphModel%&lt;/span&gt;" style="rounded=1;whiteSpace=wrap;html=1;fillColor=#f5f5f5;fontColor=#333333;strokeColor=#666666;" vertex="1" parent="1">
          <mxGeometry x="1110" y="362.92" width="90" height="57.07" as="geometry" />
        </mxCell>
        <mxCell id="uxGhuqDMktwWaUcLQht1-154" value="&lt;b&gt;&lt;font style=&quot;font-size: 16px;&quot;&gt;Elimina Gasto&lt;/font&gt;&lt;/b&gt;&lt;span style=&quot;color: rgba(0, 0, 0, 0); font-family: monospace; font-size: 0px; text-align: start; text-wrap: nowrap;&quot;&gt;%3CmxGraphModel%3E%3Croot%3E%3CmxCell%20id%3D%220%22%2F%3E%3CmxCell%20id%3D%221%22%20parent%3D%220%22%2F%3E%3CmxCell%20id%3D%222%22%20value%3D%22%26lt%3Bb%26gt%3B%26lt%3Bfont%20style%3D%26quot%3Bfont-size%3A%2016px%3B%26quot%3B%26gt%3BModifica%20Viaje%26lt%3B%2Ffont%26gt%3B%26lt%3B%2Fb%26gt%3B%22%20style%3D%22rounded%3D1%3BwhiteSpace%3Dwrap%3Bhtml%3D1%3B%22%20vertex%3D%221%22%20parent%3D%221%22%3E%3CmxGeometry%20x%3D%221120%22%20y%3D%22100%22%20width%3D%22170%22%20height%3D%22100%22%20as%3D%22geometry%22%2F%3E%3C%2FmxCell%3E%3C%2Froot%3E%3C%2FmxGraphModel%&lt;/span&gt;" style="rounded=1;whiteSpace=wrap;html=1;fillColor=#f5f5f5;fontColor=#333333;strokeColor=#666666;" vertex="1" parent="1">
          <mxGeometry x="1110" y="292.92" width="90" height="57.07" as="geometry" />
        </mxCell>
        <mxCell id="uxGhuqDMktwWaUcLQht1-155" value="" style="shape=flexArrow;endArrow=classic;startArrow=classic;html=1;rounded=0;exitX=1;exitY=0.5;exitDx=0;exitDy=0;fillColor=#bac8d3;strokeColor=#23445d;" edge="1" parent="1" source="cv4h8bZx8-ODt0pYZCOF-45" target="uxGhuqDMktwWaUcLQht1-151">
          <mxGeometry width="100" height="100" relative="1" as="geometry">
            <mxPoint x="962.01" y="190" as="sourcePoint" />
            <mxPoint x="1062.01" y="90" as="targetPoint" />
          </mxGeometry>
        </mxCell>
        <mxCell id="uxGhuqDMktwWaUcLQht1-156" value="" style="shape=flexArrow;endArrow=classic;startArrow=classic;html=1;rounded=0;fillColor=#bac8d3;strokeColor=#23445d;" edge="1" parent="1">
          <mxGeometry width="100" height="100" relative="1" as="geometry">
            <mxPoint x="1404.24" y="1070" as="sourcePoint" />
            <mxPoint x="1624.24" y="1070" as="targetPoint" />
          </mxGeometry>
        </mxCell>
        <mxCell id="uxGhuqDMktwWaUcLQht1-157" value="&lt;b&gt;&lt;font style=&quot;font-size: 15px;&quot;&gt;Navegación Entre Pantallas&lt;/font&gt;&lt;/b&gt;" style="text;html=1;align=center;verticalAlign=middle;whiteSpace=wrap;rounded=0;" vertex="1" parent="1">
          <mxGeometry x="1449.96" y="1030" width="128.56" height="32.12" as="geometry" />
        </mxCell>
        <mxCell id="uxGhuqDMktwWaUcLQht1-158" value="" style="shape=flexArrow;endArrow=classic;startArrow=classic;html=1;rounded=0;exitX=0.725;exitY=1;exitDx=0;exitDy=0;entryX=0;entryY=0.25;entryDx=0;entryDy=0;exitPerimeter=0;fillColor=#bac8d3;strokeColor=#23445d;" edge="1" parent="1" source="cv4h8bZx8-ODt0pYZCOF-45" target="uxGhuqDMktwWaUcLQht1-152">
          <mxGeometry width="100" height="100" relative="1" as="geometry">
            <mxPoint x="962.05" y="217.95" as="sourcePoint" />
            <mxPoint x="1062.05" y="217.95" as="targetPoint" />
            <Array as="points">
              <mxPoint x="910" y="320" />
            </Array>
          </mxGeometry>
        </mxCell>
        <mxCell id="uxGhuqDMktwWaUcLQht1-161" style="edgeStyle=orthogonalEdgeStyle;rounded=0;orthogonalLoop=1;jettySize=auto;html=1;exitX=0;exitY=0.75;exitDx=0;exitDy=0;entryX=0.991;entryY=0.83;entryDx=0;entryDy=0;entryPerimeter=0;" edge="1" parent="1">
          <mxGeometry relative="1" as="geometry">
            <mxPoint x="1361.148705035971" y="168.5430303030302" as="sourcePoint" />
            <mxPoint x="1199.1899999999998" y="152.06810000000002" as="targetPoint" />
            <Array as="points">
              <mxPoint x="1361" y="151.7" />
              <mxPoint x="1281" y="151.7" />
            </Array>
          </mxGeometry>
        </mxCell>
        <mxCell id="uxGhuqDMktwWaUcLQht1-162" value="&lt;font style=&quot;font-size: 14px;&quot;&gt;Nombre Lugar&lt;/font&gt;" style="text;html=1;align=center;verticalAlign=middle;whiteSpace=wrap;rounded=0;" vertex="1" parent="1">
          <mxGeometry x="1270" y="99.99999999999996" width="60" height="30" as="geometry" />
        </mxCell>
        <mxCell id="uxGhuqDMktwWaUcLQht1-163" value="&lt;font style=&quot;font-size: 14px;&quot;&gt;Coordenadas&lt;/font&gt;" style="text;html=1;align=center;verticalAlign=middle;whiteSpace=wrap;rounded=0;" vertex="1" parent="1">
          <mxGeometry x="1270" y="147.06999999999996" width="60" height="30" as="geometry" />
        </mxCell>
        <mxCell id="uxGhuqDMktwWaUcLQht1-164" style="edgeStyle=orthogonalEdgeStyle;rounded=0;orthogonalLoop=1;jettySize=auto;html=1;exitX=1.004;exitY=0.853;exitDx=0;exitDy=0;exitPerimeter=0;" edge="1" parent="1" source="uxGhuqDMktwWaUcLQht1-149">
          <mxGeometry relative="1" as="geometry">
            <mxPoint x="1320" y="450" as="targetPoint" />
            <Array as="points">
              <mxPoint x="1200" y="170" />
              <mxPoint x="1320" y="170" />
            </Array>
          </mxGeometry>
        </mxCell>
        <mxCell id="uxGhuqDMktwWaUcLQht1-165" value="&lt;font style=&quot;font-size: 14px;&quot;&gt;Lugar&lt;/font&gt;" style="text;html=1;align=center;verticalAlign=middle;whiteSpace=wrap;rounded=0;" vertex="1" parent="1">
          <mxGeometry x="1320" y="263.53999999999996" width="60" height="30" as="geometry" />
        </mxCell>
        <mxCell id="uxGhuqDMktwWaUcLQht1-167" value="&lt;font style=&quot;font-size: 14px;&quot;&gt;ID&lt;/font&gt;" style="text;html=1;align=center;verticalAlign=middle;whiteSpace=wrap;rounded=0;" vertex="1" parent="1">
          <mxGeometry x="1240" y="187.06999999999996" width="60" height="30" as="geometry" />
        </mxCell>
        <mxCell id="uxGhuqDMktwWaUcLQht1-168" style="edgeStyle=orthogonalEdgeStyle;rounded=0;orthogonalLoop=1;jettySize=auto;html=1;exitX=1;exitY=0.5;exitDx=0;exitDy=0;entryX=0.287;entryY=-0.002;entryDx=0;entryDy=0;entryPerimeter=0;" edge="1" parent="1" source="uxGhuqDMktwWaUcLQht1-154" target="uxGhuqDMktwWaUcLQht1-42">
          <mxGeometry relative="1" as="geometry" />
        </mxCell>
        <mxCell id="uxGhuqDMktwWaUcLQht1-170" value="&lt;font style=&quot;font-size: 14px;&quot;&gt;ID&lt;/font&gt;" style="text;html=1;align=center;verticalAlign=middle;whiteSpace=wrap;rounded=0;" vertex="1" parent="1">
          <mxGeometry x="1240" y="292.91999999999996" width="60" height="30" as="geometry" />
        </mxCell>
        <mxCell id="uxGhuqDMktwWaUcLQht1-171" value="&lt;font style=&quot;font-size: 14px;&quot;&gt;Gasto&lt;/font&gt;" style="text;html=1;align=center;verticalAlign=middle;whiteSpace=wrap;rounded=0;" vertex="1" parent="1">
          <mxGeometry x="1200" y="365.55999999999995" width="60" height="30" as="geometry" />
        </mxCell>
        <mxCell id="uxGhuqDMktwWaUcLQht1-172" value="&lt;font style=&quot;font-size: 14px;&quot;&gt;ID&lt;/font&gt;" style="text;html=1;align=center;verticalAlign=middle;whiteSpace=wrap;rounded=0;" vertex="1" parent="1">
          <mxGeometry x="1226.12" y="1090" width="60" height="30" as="geometry" />
        </mxCell>
        <mxCell id="uxGhuqDMktwWaUcLQht1-175" value="" style="shape=flexArrow;endArrow=classic;startArrow=classic;html=1;rounded=0;exitX=0.5;exitY=1;exitDx=0;exitDy=0;entryX=0.5;entryY=0;entryDx=0;entryDy=0;fillColor=#bac8d3;strokeColor=#23445d;" edge="1" parent="1" source="cv4h8bZx8-ODt0pYZCOF-45" target="cv4h8bZx8-ODt0pYZCOF-8">
          <mxGeometry width="100" height="100" relative="1" as="geometry">
            <mxPoint x="777" y="307.33" as="sourcePoint" />
            <mxPoint x="877" y="307.33" as="targetPoint" />
          </mxGeometry>
        </mxCell>
        <mxCell id="uxGhuqDMktwWaUcLQht1-176" value="" style="shape=flexArrow;endArrow=classic;startArrow=classic;html=1;rounded=0;exitX=0;exitY=0.5;exitDx=0;exitDy=0;entryX=0.5;entryY=0;entryDx=0;entryDy=0;fillColor=#bac8d3;strokeColor=#23445d;" edge="1" parent="1" source="cv4h8bZx8-ODt0pYZCOF-8">
          <mxGeometry width="100" height="100" relative="1" as="geometry">
            <mxPoint x="748.183597122302" y="439.99989898989907" as="sourcePoint" />
            <mxPoint x="581.3699999999999" y="793.8499999999999" as="targetPoint" />
            <Array as="points">
              <mxPoint x="680" y="450" />
              <mxPoint x="581" y="450" />
            </Array>
          </mxGeometry>
        </mxCell>
        <mxCell id="uxGhuqDMktwWaUcLQht1-181" value="" style="shape=flexArrow;endArrow=classic;startArrow=classic;html=1;rounded=0;exitX=0;exitY=0.5;exitDx=0;exitDy=0;entryX=0.5;entryY=0;entryDx=0;entryDy=0;fillColor=#bac8d3;strokeColor=#23445d;" edge="1" parent="1" source="cv4h8bZx8-ODt0pYZCOF-9">
          <mxGeometry width="100" height="100" relative="1" as="geometry">
            <mxPoint x="630" y="634.8399999999999" as="sourcePoint" />
            <mxPoint x="630" y="793.8399999999999" as="targetPoint" />
            <Array as="points">
              <mxPoint x="630" y="580" />
            </Array>
          </mxGeometry>
        </mxCell>
        <mxCell id="uxGhuqDMktwWaUcLQht1-182" value="" style="shape=flexArrow;endArrow=classic;startArrow=classic;html=1;rounded=0;exitX=0;exitY=0.5;exitDx=0;exitDy=0;entryX=1;entryY=0.25;entryDx=0;entryDy=0;fillColor=#bac8d3;strokeColor=#23445d;" edge="1" parent="1" source="cv4h8bZx8-ODt0pYZCOF-10" target="cv4h8bZx8-ODt0pYZCOF-5">
          <mxGeometry width="100" height="100" relative="1" as="geometry">
            <mxPoint x="710" y="710" as="sourcePoint" />
            <mxPoint x="710" y="869" as="targetPoint" />
            <Array as="points">
              <mxPoint x="720" y="720" />
              <mxPoint x="720" y="821" />
            </Array>
          </mxGeometry>
        </mxCell>
        <mxCell id="uxGhuqDMktwWaUcLQht1-183" value="" style="shape=flexArrow;endArrow=classic;startArrow=classic;html=1;rounded=0;exitX=1;exitY=0.5;exitDx=0;exitDy=0;fillColor=#bac8d3;strokeColor=#23445d;" edge="1" parent="1">
          <mxGeometry width="100" height="100" relative="1" as="geometry">
            <mxPoint x="644.89" y="860" as="sourcePoint" />
            <mxPoint x="770" y="860" as="targetPoint" />
          </mxGeometry>
        </mxCell>
        <mxCell id="uxGhuqDMktwWaUcLQht1-186" value="&lt;font style=&quot;font-size: 14px;&quot;&gt;Usuario&lt;/font&gt;" style="text;html=1;align=center;verticalAlign=middle;whiteSpace=wrap;rounded=0;" vertex="1" parent="1">
          <mxGeometry x="1226.12" y="1130" width="60" height="30" as="geometry" />
        </mxCell>
        <mxCell id="uxGhuqDMktwWaUcLQht1-187" value="&lt;span style=&quot;font-size: 14px;&quot;&gt;Usuario&lt;/span&gt;" style="text;html=1;align=center;verticalAlign=middle;whiteSpace=wrap;rounded=0;" vertex="1" parent="1">
          <mxGeometry x="1226.12" y="1160" width="60" height="30" as="geometry" />
        </mxCell>
        <mxCell id="uxGhuqDMktwWaUcLQht1-188" value="&lt;b&gt;&lt;font style=&quot;font-size: 14px;&quot;&gt;Inicio&lt;/font&gt;&lt;/b&gt;" style="text;html=1;align=center;verticalAlign=middle;whiteSpace=wrap;rounded=0;" vertex="1" parent="1">
          <mxGeometry x="359.99575539568355" y="409.99626262626265" width="191.36690647482015" height="32.121212121212125" as="geometry" />
        </mxCell>
      </root>
    </mxGraphModel>
  </diagram>
</mxfile>
